# xmcd CD database file
#
# Track frame offsets:
#	150
#	11553
#	23391
#	35602
#	54566
#	72138
#	89609
#	101664
#	114177
#	129811
#	148058
#	162447
#	179440
#	194239
#
# Disc length: 2795 seconds
#
# Revision: 0
# Processed by: cddbd v1.5.2PL0 Copyright (c) Steve Scherf et al.
# Submitted via: CDex 1.79
#
DISCID=bd0ae90e
DTITLE=The Far West - The Far West
DYEAR=2011
DGENRE=Country
TTITLE0=01 Bitter, Drunk and Cold
TTITLE1=02 Nothing Like You
TTITLE2=03 Best Company Misery Ever Had
TTITLE3=04 Tears On The Pillowcase
TTITLE4=05 Gone To Texas
TTITLE5=06 I'll Keep The Bed Warm
TTITLE6=07 Bound To Lose
TTITLE7=08 Not Far To Fall
TTITLE8=09 Where I Get Off
TTITLE9=10 Maricopa City Lights
TTITLE10=11 I'll Never Drink Again
TTITLE11=12 A Town Called Lonesome
TTITLE12=13 Good Lord Willing
TTITLE13=14 What's Done Is Done
EXTD=YEAR: 2011
EXTT0=
EXTT1=
EXTT2=
EXTT3=
EXTT4=
EXTT5=
EXTT6=
EXTT7=
EXTT8=
EXTT9=
EXTT10=
EXTT11=
EXTT12=
EXTT13=
PLAYORDER=
